<svg xmlns="http://www.w3.org/2000/svg" viewBox="0 0 100 100" width="100" height="100">
  <rect width="100" height="100" fill="#FFF8DC"/>
  <rect x="20" y="45" width="60" height="8" fill="#8B4513" rx="4"/>
  <circle cx="30" cy="49" r="2" fill="#654321"/>
  <circle cx="40" cy="49" r="2" fill="#654321"/>
  <circle cx="50" cy="49" r="2" fill="#654321"/>
  <circle cx="60" cy="49" r="2" fill="#654321"/>
  <circle cx="70" cy="49" r="2" fill="#654321"/>
  <path d="M15 49 Q20 45 20 49 Q20 53 15 49" fill="#D2691E"/>
  <path d="M80 49 Q85 45 85 49 Q85 53 80 49" fill="#D2691E"/>
  <path d="M25 30 Q50 20 75 30 Q65 35 50 30 Q35 35 25 30" fill="#FFD700" opacity="0.5"/>
  <circle cx="50" cy="25" r="2" fill="#FF6347"/>
</svg>