<svg xmlns="http://www.w3.org/2000/svg" viewBox="0 0 100 100" width="100" height="100">
  <rect width="100" height="100" fill="#191970"/>
  <circle cx="65" cy="30" r="12" fill="#F0E68C"/>
  <path d="M20 20 L22 25 L27 25 L23 28 L25 33 L20 30 L15 33 L17 28 L13 25 L18 25 Z" fill="#FFD700"/>
  <path d="M80 60 L81 63 L84 63 L82 65 L83 68 L80 66 L77 68 L78 65 L76 63 L79 63 Z" fill="#FFD700"/>
  <path d="M15 70 L16 72 L18 72 L17 74 L18 76 L15 75 L12 76 L13 74 L12 72 L14 72 Z" fill="#FFD700"/>
  <circle cx="30" cy="80" r="1" fill="#FFFFFF"/>
  <circle cx="85" cy="45" r="1" fill="#FFFFFF"/>
  <circle cx="45" cy="15" r="1" fill="#FFFFFF"/>
</svg>