<svg xmlns="http://www.w3.org/2000/svg" viewBox="0 0 100 100" width="100" height="100">
  <rect width="100" height="100" fill="#E6F3FF"/>
  <ellipse cx="30" cy="25" rx="15" ry="10" fill="#708090"/>
  <ellipse cx="50" cy="20" rx="18" ry="12" fill="#778899"/>
  <ellipse cx="70" cy="25" rx="15" ry="10" fill="#708090"/>
  <line x1="25" y1="45" x2="23" y2="55" stroke="#4682B4" stroke-width="2"/>
  <line x1="35" y1="40" x2="33" y2="50" stroke="#4682B4" stroke-width="2"/>
  <line x1="45" y1="42" x2="43" y2="52" stroke="#4682B4" stroke-width="2"/>
  <line x1="55" y1="40" x2="53" y2="50" stroke="#4682B4" stroke-width="2"/>
  <line x1="65" y1="42" x2="63" y2="52" stroke="#4682B4" stroke-width="2"/>
  <line x1="75" y1="45" x2="73" y2="55" stroke="#4682B4" stroke-width="2"/>
  <line x1="30" y1="60" x2="28" y2="70" stroke="#4682B4" stroke-width="2"/>
  <line x1="40" y1="58" x2="38" y2="68" stroke="#4682B4" stroke-width="2"/>
  <line x1="50" y1="60" x2="48" y2="70" stroke="#4682B4" stroke-width="2"/>
  <line x1="60" y1="58" x2="58" y2="68" stroke="#4682B4" stroke-width="2"/>
  <line x1="70" y1="60" x2="68" y2="70" stroke="#4682B4" stroke-width="2"/>
</svg>